<?xml version="1.0" encoding="UTF-8"?>
<!DOCTYPE svg PUBLIC "-//W3C//DTD SVG 1.1//EN" "http://www.w3.org/Graphics/SVG/1.1/DTD/svg11.dtd">
<!-- Creator: CorelDRAW -->
<svg xmlns="http://www.w3.org/2000/svg" xml:space="preserve" width="1.70666in" height="1.70666in" version="1.1" style="shape-rendering:geometricPrecision; text-rendering:geometricPrecision; image-rendering:optimizeQuality; fill-rule:evenodd; clip-rule:evenodd"
viewBox="0 0 1707 1707"
 xmlns:xlink="http://www.w3.org/1999/xlink">
 <defs>
  <style type="text/css">
   <![CDATA[
    .fil0 {fill:crimson}
   ]]>
  </style>
 </defs>
 <g id="Layer_x0020_1">
  <metadata id="CorelCorpID_0Corel-Layer"/>
  <g id="_416997392">
   <g>
    <g>
     <path class="fil0" d="M825 986c-64,0 -101,-27 -130,-72 -30,45 -67,72 -129,72 -85,0 -154,-69 -154,-153 0,-140 136,-276 266,-407 10,-9 25,-9 35,0 131,132 266,267 266,407 0,84 -70,153 -154,153zm-130 -145c0,0 0,0 0,0 9,0 18,5 22,14 30,62 58,83 108,83 58,0 105,-47 105,-105 0,-114 -116,-236 -235,-355 -118,119 -236,241 -236,355 0,58 47,105 105,105 50,0 77,-21 108,-83 6,-9 14,-14 23,-14z"/>
    </g>
    <g>
     <path class="fil0" d="M695 1124c-14,0 -25,-11 -25,-25l0 -233c0,-14 11,-25 25,-25 13,0 25,11 25,25l0 233c0,14 -12,25 -25,25z"/>
    </g>
    <g>
     <path class="fil0" d="M778 1124l-167 0c-13,0 -25,-11 -25,-25 0,-14 12,-25 25,-25l167 0c14,0 25,11 25,25 0,14 -11,25 -25,25z"/>
    </g>
    <g>
     <path class="fil0" d="M695 1323c-305,0 -554,-246 -554,-551 0,-305 249,-554 554,-554 305,0 553,249 553,554 0,305 -248,551 -553,551zm0 -1056c-278,0 -505,226 -505,505 0,277 226,503 505,503 278,0 504,-226 504,-503 0,-279 -226,-505 -504,-505z"/>
    </g>
    <g>
     <path class="fil0" d="M695 1466c-383,0 -695,-312 -695,-694 0,-383 312,-694 695,-694 382,0 694,311 694,694 0,382 -312,694 -694,694zm0 -1339c-355,0 -645,288 -645,645 0,356 290,646 646,646 356,0 646,-290 646,-646 -1,-357 -291,-645 -647,-645z"/>
    </g>
    <g>
     <path class="fil0" d="M695 267c-14,0 -25,-11 -25,-25l0 -140c0,-14 11,-25 25,-25 13,0 25,11 25,25l0 140c0,14 -12,25 -25,25z"/>
    </g>
    <g>
     <path class="fil0" d="M1069 422c-6,0 -13,-3 -17,-7 -9,-9 -9,-25 0,-34l100 -100c10,-10 25,-10 35,0 9,9 9,25 0,34l-100 100c-7,4 -13,7 -18,7z"/>
    </g>
    <g>
     <path class="fil0" d="M1364 796l-140 0c-14,0 -25,-11 -25,-24 0,-14 11,-25 25,-25l142 0c13,0 25,11 25,25 0,13 -13,24 -27,24z"/>
    </g>
    <g>
     <path class="fil0" d="M1169 1269c-6,0 -13,-3 -17,-7l-100 -100c-9,-9 -9,-24 0,-34 10,-10 25,-10 35,0l100 100c9,9 9,25 0,34 -7,4 -13,7 -18,7z"/>
    </g>
    <g>
     <path class="fil0" d="M695 1466c-14,0 -25,-11 -25,-25l0 -141c0,-14 11,-25 25,-25 13,0 25,11 25,25l0 141c0,14 -12,25 -25,25z"/>
    </g>
    <g>
     <path class="fil0" d="M220 1269c-5,0 -12,-3 -16,-7 -10,-9 -10,-25 0,-34l100 -100c9,-10 25,-10 34,0 10,10 10,25 0,34l-100 100c-5,4 -11,7 -18,7z"/>
    </g>
    <g>
     <path class="fil0" d="M166 796l-140 0c-14,0 -25,-11 -25,-24 0,-14 11,-25 25,-25l140 0c14,0 25,11 25,25 0,13 -12,24 -25,24z"/>
    </g>
    <g>
     <path class="fil0" d="M320 422c-5,0 -12,-3 -16,-7l-100 -101c-10,-10 -10,-25 0,-35 10,-9 25,-9 34,0l100 100c10,10 10,25 0,35 -5,5 -11,8 -18,8z"/>
    </g>
    <g>
     <path class="fil0" d="M1012 1488c-69,0 -137,-12 -200,-36 -12,-4 -19,-19 -13,-32 4,-12 19,-19 31,-13 59,22 120,33 183,33 278,0 504,-226 504,-505 0,-169 -83,-326 -223,-419 -12,-7 -14,-22 -7,-33 7,-11 22,-14 33,-7 154,103 245,275 245,459 0,305 -248,553 -553,553z"/>
    </g>
    <g>
     <path class="fil0" d="M1012 1630c-176,0 -344,-65 -473,-185 -9,-9 -11,-25 -1,-34 10,-10 25,-11 35,-2 120,111 275,172 439,172 356,0 646,-290 646,-646 0,-303 -216,-568 -513,-631 -12,-2 -22,-15 -19,-29 3,-12 15,-22 29,-19 319,68 552,352 552,678 0,384 -312,696 -695,696z"/>
    </g>
    <g>
     <path class="fil0" d="M1385 586c-6,0 -12,-3 -17,-7 -9,-10 -9,-25 0,-35l100 -100c10,-9 25,-9 35,0 10,10 10,25 0,35l-100 100c-6,5 -11,7 -18,7z"/>
    </g>
    <g>
     <path class="fil0" d="M1682 960l-142 0c-14,0 -25,-11 -25,-25 0,-14 11,-25 25,-25l142 0c14,0 25,11 25,25 0,14 -11,25 -25,25z"/>
    </g>
    <g>
     <path class="fil0" d="M1485 1434c-6,0 -13,-3 -17,-7l-100 -101c-9,-10 -9,-25 0,-35 10,-9 25,-9 35,0l100 100c10,10 10,25 0,35 -6,5 -11,8 -18,8z"/>
    </g>
    <g>
     <path class="fil0" d="M1012 1630c-14,0 -25,-11 -25,-25l0 -140c0,-14 11,-25 25,-25 14,0 25,11 25,25l0 140c0,14 -11,25 -25,25z"/>
    </g>
   </g>
  </g>
 </g>
</svg>
